# xmcd
#
# Track frame offsets: 
#        150
#        11654
#        28229
#        37083
#        49545
#        60001
#        71574
#        82117
#        96369
#        108071
#        118188
#        134811
#        146878
#        163740
#        179407
#        191455
#
# Disc length: 2702 seconds
#
# Revision: 0
# Processed by: cddbd v1.5.2PL0 Copyright (c) Steve Scherf et al.
# Submitted via: ExactAudioCopyFreeDBPlugin 1.0
#
DISCID=e70a8c10
DTITLE=Glen Campbell - Golden Star
DYEAR=2005
DGENRE=Country
TTITLE0=(Sittin' on) The dock of the bay
TTITLE1=If you go away
TTITLE2=Ann
TTITLE3=Words
TTITLE4=Reason to believe
TTITLE5=Friends
TTITLE6=Together again
TTITLE7=Rhinestone cowboy
TTITLE8=Take these chains from my heart
TTITLE9=My special angel
TTITLE10=You win again
TTITLE11=My prayer
TTITLE12=If you could read my mind
TTITLE13=He ain't heavy, he's my brother
TTITLE14=I can't help it
TTITLE15=You've still got a place in my heart
EXTD=
EXTT0=
EXTT1=
EXTT2=
EXTT3=
EXTT4=
EXTT5=
EXTT6=
EXTT7=
EXTT8=
EXTT9=
EXTT10=
EXTT11=
EXTT12=
EXTT13=
EXTT14=
EXTT15=
PLAYORDER=
